<svg width="30" height="27" viewBox="0 0 30 27" fill="none" xmlns="http://www.w3.org/2000/svg">
<path d="M26.9571 3.42998C25.5761 1.86297 23.6602 1 21.5625 1C18.6122 1 16.7444 2.76203 15.697 4.24023C15.4252 4.62381 15.1941 5.00843 15 5.37035C14.8059 5.00843 14.5748 4.62381 14.303 4.24023C13.2556 2.76203 11.3878 1 8.4375 1C6.3398 1 4.42393 1.86302 3.04285 3.43004C1.72554 4.92487 1 6.92687 1 9.06723C1 11.3971 1.90962 13.5641 3.86262 15.8868C5.60808 17.9627 8.11916 20.1025 11.027 22.5803C12.1105 23.5037 13.231 24.4585 14.4239 25.5022L14.4597 25.5336C14.6143 25.669 14.8072 25.7367 15 25.7367C15.1928 25.7367 15.3857 25.669 15.5403 25.5336L15.5761 25.5022C16.769 24.4585 17.8895 23.5037 18.9732 22.5802C21.8808 20.1026 24.3919 17.9627 26.1374 15.8868C28.0904 13.564 29 11.3971 29 9.06723C29 6.92687 28.2745 4.92487 26.9571 3.42998ZM17.909 21.3316C16.9749 22.1275 16.0136 22.9467 15 23.8279C13.9864 22.9468 13.0251 22.1276 12.0908 21.3315C6.40012 16.4822 2.64062 13.2785 2.64062 9.06723C2.64062 7.32652 3.22059 5.70974 4.2737 4.51477C5.33891 3.30623 6.8176 2.64062 8.4375 2.64062C10.6867 2.64062 12.1407 4.0263 12.9643 5.18873C13.7031 6.2313 14.0886 7.28228 14.22 7.68571C14.33 8.02341 14.6449 8.25194 15 8.25194C15.3551 8.25194 15.67 8.02341 15.78 7.68571C15.9114 7.28228 16.2969 6.2313 17.0357 5.18868C17.8593 4.0263 19.3133 2.64062 21.5625 2.64062C23.1824 2.64062 24.6611 3.30623 25.7262 4.51477C26.7794 5.70974 27.3594 7.32652 27.3594 9.06723C27.3594 13.2785 23.5999 16.4822 17.909 21.3316Z" fill="#FF7200" stroke="#FF7200"/>
</svg>
