<svg width="30" height="27" viewBox="0 0 30 27" fill="none" xmlns="http://www.w3.org/2000/svg">
<path d="M26.9571 3.42998C25.5761 1.86297 23.6602 1 21.5625 1C18.6122 1 16.7444 2.76203 15.697 4.24023C15.4253 4.62381 15.1941 5.00843 15 5.37035C14.8059 5.00843 14.5748 4.62381 14.303 4.24023C13.2556 2.76203 11.3878 1 8.4375 1C6.3398 1 4.42393 1.86302 3.04285 3.43004C1.72554 4.92487 1 6.92687 1 9.06723C1 11.3971 1.90962 13.5641 3.86262 15.8868C5.60808 17.9627 8.11916 20.1025 11.027 22.5803C12.1105 23.5037 13.231 24.4585 14.4239 25.5022L14.4597 25.5336C14.6143 25.669 14.8072 25.7367 15 25.7367C15.1928 25.7367 15.3857 25.669 15.5403 25.5336L15.5761 25.5022C16.769 24.4585 17.8895 23.5037 18.9732 22.5802C21.8808 20.1026 24.3919 17.9627 26.1374 15.8868C28.0904 13.564 29 11.3971 29 9.06723C29 6.92687 28.2745 4.92487 26.9571 3.42998Z" fill="#FF7200" stroke="#FF7200"/>
</svg>
