<svg width="110" height="110" viewBox="0 0 110 110" fill="none" xmlns="http://www.w3.org/2000/svg">
<g clip-path="url(#clip0)">
<path d="M84.4336 70.6836H59.8542L64.443 67.2596C67.8135 70.2002 74.3276 70.6653 80.2151 66.1444C86.0608 61.6556 87.9884 54.3058 84.5118 49.7606C84.0956 49.2164 83.6116 48.7244 83.0728 48.2982C82.3752 47.7458 81.3615 47.864 80.8094 48.562C80.2572 49.26 80.3752 50.2732 81.0734 50.8254C81.4026 51.086 81.6984 51.3863 81.9524 51.7183C84.3513 54.855 82.6916 60.1799 78.2528 63.5884C75.6546 65.5836 72.5014 66.5622 69.8193 66.2077C68.7906 66.0718 67.8831 65.7484 67.129 65.2558L75.3234 59.1418C76.0364 58.6096 76.1834 57.6 75.651 56.8868C75.1188 56.1737 74.1097 56.0267 73.396 56.5589L65.1191 62.7342C63.9485 59.5723 65.7074 55.1706 69.56 52.2124C71.4291 50.777 73.6136 49.8468 75.7112 49.593C76.5946 49.486 77.2243 48.6834 77.1173 47.7997C77.0105 46.9161 76.2057 46.2866 75.3242 46.3936C72.6232 46.7204 69.9514 47.8485 67.5974 49.6562C62.2933 53.729 60.2151 60.1571 62.4725 64.7088L56.6115 69.0819V52.23C59.6698 51.4922 62.1036 48.6969 62.8326 45.1232C64.2239 46.0481 65.7802 46.626 67.3655 46.7893C69.6532 47.0248 71.8886 46.3897 73.5326 44.7442C75.1003 43.1778 75.827 40.9872 75.5786 38.5761C75.4153 36.9907 74.8376 35.4342 73.9127 34.0431C78.0948 33.1901 81.2109 30.0023 81.2109 26.2109C81.2109 22.4196 78.0948 19.2315 73.9127 18.3786C74.8376 16.9873 75.4155 15.4307 75.5786 13.8456C75.8267 11.4344 75.1001 9.24387 73.5335 7.67852C71.9671 6.1108 69.7772 5.38398 67.3653 5.63256C65.78 5.79584 64.2235 6.37377 62.8323 7.29867C61.9794 3.11609 58.7913 0 55 0C51.2087 0 48.0206 3.11631 47.1677 7.29846C45.1703 5.97051 42.8504 5.36701 40.6553 5.65512C39.7732 5.77092 39.1516 6.58002 39.2672 7.46238C39.383 8.34475 40.193 8.965 41.0745 8.85049C42.9284 8.60729 45.0568 9.43164 46.6267 11.0026C46.7723 11.1482 46.9242 11.3113 47.0804 11.4898C47.3724 13.738 48.1097 16.3021 49.0858 18.4325C48.3841 18.9673 47.7568 19.5948 47.2218 20.2965C45.0914 19.3205 42.5268 18.5831 40.2787 18.2912C40.1008 18.1352 39.9377 17.9835 39.7916 17.8374C38.1103 16.1573 37.305 13.9129 37.69 11.9801C37.8641 11.1074 37.2973 10.259 36.4246 10.085C35.5511 9.91139 34.7033 10.4779 34.5295 11.3504C34.068 13.6666 34.6586 16.2153 36.0905 18.3779C31.9067 19.23 28.7891 22.4185 28.7891 26.2109C28.7891 30.0023 31.9052 33.1903 36.0873 34.0433C35.1624 35.4346 34.5845 36.9911 34.4214 38.5763C34.1733 40.9875 34.8999 43.178 36.4665 44.7434C38.106 46.3841 40.3376 47.0259 42.6347 46.7893C44.22 46.626 45.7765 46.0481 47.1677 45.1232C47.8966 48.6969 50.3304 51.492 53.3887 52.2298V69.0332L47.584 64.5928C49.7494 60.0484 47.6618 53.6944 42.4026 49.6562C39.0921 47.1142 35.148 45.9265 31.5842 46.3981C29.0187 46.7375 26.9107 47.9001 25.4882 49.76C22.0116 54.3054 23.9392 61.6552 29.7849 66.1437C34.9012 70.0724 41.6982 70.7345 45.6539 67.1733L50.2416 70.6836H25.5664C23.4934 70.6836 21.8066 72.3703 21.8066 74.4434V80.0293C21.8066 82.1023 23.4934 83.7891 25.5664 83.7891H27.1777V89.3694C27.1777 90.2593 27.899 90.9807 28.7891 90.9807C29.6792 90.9807 30.4004 90.2593 30.4004 89.3694V83.7891H79.5996V102.803C79.5996 104.994 77.8166 106.777 75.625 106.777H34.375C32.1834 106.777 30.4004 104.994 30.4004 102.803V96.2887C30.4004 95.3988 29.6792 94.6773 28.7891 94.6773C27.899 94.6773 27.1777 95.3988 27.1777 96.2887V102.803C27.1777 106.771 30.4064 110 34.375 110H75.625C79.5936 110 82.8223 106.771 82.8223 102.803V83.7891H84.4336C86.5066 83.7891 88.1934 82.1023 88.1934 80.0293V74.4434C88.1934 72.3703 86.5066 70.6836 84.4336 70.6836ZM48.4473 26.2109C48.4473 22.5977 51.387 19.6582 55 19.6582C58.613 19.6582 61.5527 22.5977 61.5527 26.2109C61.5527 29.8242 58.613 32.7637 55 32.7637C51.387 32.7637 48.4473 29.8242 48.4473 26.2109ZM71.2538 42.4658C70.3867 43.3338 69.123 43.7308 67.6953 43.5839C66.1433 43.424 64.6087 42.6553 63.3733 41.4191C63.2277 41.2734 63.0758 41.1104 62.9196 40.9318C62.6276 38.6837 61.8903 36.1195 60.9142 33.9891C61.6159 33.4544 62.2432 32.8268 62.7782 32.1252C64.9086 33.101 67.473 33.8385 69.7211 34.1305C69.8994 34.2867 70.0625 34.4384 70.2084 34.5845C71.4444 35.8196 72.2131 37.3545 72.3729 38.9065C72.5199 40.3339 72.1228 41.5976 71.2538 42.4658ZM77.9883 26.2109C77.9883 28.8765 75.1556 31.0449 71.674 31.0449C69.4132 31.0449 66.4153 30.2244 64.2847 29.2712C64.926 27.3301 64.952 25.1702 64.2847 23.1505C66.417 22.1966 69.4139 21.3767 71.674 21.3767C75.1556 21.377 77.9883 23.5454 77.9883 26.2109ZM67.6955 8.83803C69.1234 8.69065 70.3867 9.08811 71.2549 9.95715C72.1228 10.8245 72.5199 12.088 72.3729 13.5156C72.2131 15.0676 71.4444 16.6025 70.2077 17.8383C70.062 17.9839 69.8992 18.1356 69.7213 18.2914C67.473 18.5833 64.9086 19.3207 62.7782 20.2967C62.2435 19.595 61.6161 18.9677 60.9142 18.4327C61.89 16.3023 62.6276 13.7382 62.9196 11.4901C63.0758 11.3115 63.2277 11.1485 63.3733 11.0026C64.6089 9.76637 66.1435 8.99766 67.6955 8.83803ZM50.166 9.53691C50.166 6.05537 52.3346 3.22266 55 3.22266C57.6654 3.22266 59.834 6.05537 59.834 9.53691C59.834 11.2995 59.2399 14.2897 58.0604 16.9262C56.1157 16.2837 53.9554 16.2602 51.9398 16.9262C50.7882 14.3526 50.166 11.3541 50.166 9.53691ZM32.0117 26.2109C32.0117 23.5454 34.8444 21.377 38.326 21.377C40.0866 21.377 43.0702 21.9673 45.7153 23.1507C45.074 25.0918 45.048 27.2516 45.7153 29.2714C43.5828 30.2253 40.5836 31.0451 38.326 31.0451C34.8444 31.0449 32.0117 28.8765 32.0117 26.2109ZM42.3045 43.5839C40.8766 43.731 39.6133 43.3336 38.7451 42.4647C37.8772 41.5974 37.4801 40.3339 37.6271 38.9063C37.7869 37.3542 38.5556 35.8194 39.7923 34.5836C39.9377 34.4382 40.1006 34.2865 40.2789 34.1303C42.527 33.8383 45.0914 33.101 47.2218 32.1249C47.7565 32.8266 48.3839 33.454 49.0858 33.9889C48.11 36.1193 47.3724 38.6835 47.0804 40.9316C46.9242 41.1101 46.7723 41.2732 46.6267 41.4191C45.3911 42.6555 43.8565 43.4242 42.3045 43.5839ZM50.166 42.885C50.166 40.6126 50.9932 37.6116 51.9396 35.4956C53.8843 36.1382 56.0446 36.1616 58.0602 35.4956C59.2159 38.0789 59.8338 41.0811 59.8338 42.885C59.8338 46.3667 57.6651 49.1992 54.9998 49.1992C52.3344 49.1992 50.166 46.3665 50.166 42.885ZM40.1807 66.2075C37.4962 66.5618 34.3454 65.583 31.7472 63.5882C27.3084 60.1797 25.6487 54.8548 28.0476 51.718C28.939 50.5527 30.308 49.8178 32.0066 49.593C32.3692 49.5451 32.7405 49.5215 33.1177 49.5215C35.5315 49.5215 38.1932 50.4872 40.44 52.2124C44.226 55.1195 45.9901 59.4206 44.9387 62.5694L37.0962 56.5701C36.3896 56.0293 35.3781 56.1642 34.8373 56.8709C34.2966 57.5777 34.4313 58.589 35.1381 59.1297L43.0167 65.1567C42.2353 65.7052 41.2766 66.0625 40.1807 66.2075ZM84.9707 80.0293C84.9707 80.3253 84.7299 80.5664 84.4336 80.5664H25.5664C25.2701 80.5664 25.0293 80.3253 25.0293 80.0293V74.4434C25.0293 74.1473 25.2701 73.9062 25.5664 73.9062H84.4336C84.7299 73.9062 84.9707 74.1473 84.9707 74.4434V80.0293Z" fill="#FFC000"/>
</g>
<defs>
<clipPath id="clip0">
<rect width="110" height="110" fill="white"/>
</clipPath>
</defs>
</svg>
