<svg width="12" height="11" viewBox="0 0 12 11" fill="none" xmlns="http://www.w3.org/2000/svg">
<path d="M1.11538 5.88458C1.03846 5.80765 1 5.69227 1 5.61535C1 5.53842 1.03846 5.42304 1.11538 5.34612L1.65385 4.80765C1.80769 4.65381 2.03846 4.65381 2.19231 4.80765L2.23077 4.84612L4.34615 7.11535C4.42308 7.19227 4.53846 7.19227 4.61538 7.11535L9.76923 1.76919H9.80769C9.96154 1.61535 10.1923 1.61535 10.3462 1.76919L10.8846 2.30765C11.0385 2.4615 11.0385 2.69227 10.8846 2.84612L4.73077 9.23073C4.65385 9.30765 4.57692 9.34612 4.46154 9.34612C4.34615 9.34612 4.26923 9.30765 4.19231 9.23073L1.19231 5.99996L1.11538 5.88458Z" fill="#43AC3C" stroke="#489621"/>
</svg>
