<svg width="28" height="28" viewBox="0 0 28 28" fill="none" xmlns="http://www.w3.org/2000/svg">
<path d="M26.25 4.375H1.75C0.78575 4.375 0 5.16075 0 6.125V21.875C0 22.8393 0.78575 23.625 1.75 23.625H26.25C27.2143 23.625 28 22.8393 28 21.875V6.125C28 5.16075 27.2143 4.375 26.25 4.375ZM17.5 6.125H26.25V13.125H22.2757C22.96 12.8485 23.5043 12.5825 23.73 12.3567C24.7537 11.333 24.7537 9.66875 23.73 8.645C22.7063 7.62125 21.042 7.62125 20.0182 8.645C19.6245 9.03875 18.4818 10.3932 17.5 11.571V6.125ZM19.117 12.3637C20.0305 11.27 20.9545 10.1832 21.2555 9.88225C21.427 9.71075 21.651 9.625 21.875 9.625C22.099 9.625 22.323 9.709 22.4945 9.8805C22.8358 10.2217 22.8358 10.7765 22.5155 11.0985C22.2075 11.34 20.7865 11.8475 19.117 12.3637ZM15.75 21.875H1.75V14.875H14.5128L11.6322 17.7555C11.291 18.0968 11.291 18.6515 11.6322 18.9927C11.802 19.1642 12.026 19.25 12.25 19.25C12.474 19.25 12.698 19.1643 12.8695 18.9945L15.75 16.1122V21.875ZM15.75 11.571C14.7683 10.3932 13.6255 9.03875 13.2317 8.64325C12.208 7.6195 10.5437 7.6195 9.52 8.64325C8.49625 9.667 8.49625 11.3312 9.52 12.355C9.74575 12.5825 10.29 12.8485 10.9742 13.125H1.75V6.125H15.75V11.571ZM14.133 12.3637C12.4653 11.8475 11.0495 11.347 10.7555 11.1178C10.4142 10.7765 10.4142 10.2217 10.7555 9.8805C10.927 9.71075 11.151 9.625 11.375 9.625C11.599 9.625 11.823 9.709 11.9945 9.8805C12.2955 10.1832 13.2195 11.27 14.133 12.3637ZM26.25 22.75V21.875H17.5V16.1122L20.3805 18.9927C20.552 19.1642 20.776 19.25 21 19.25C21.224 19.25 21.448 19.1643 21.6195 18.9945C21.9608 18.6532 21.9608 18.0985 21.6195 17.7573L18.7372 14.875H26.25V21.875C26.25 21.875 26.25 21.875 26.2518 21.875L26.25 22.75Z" fill="white"/>
<path d="M9.625 18.375H4.375C3.892 18.375 3.5 18.767 3.5 19.25C3.5 19.733 3.892 20.125 4.375 20.125H9.625C10.108 20.125 10.5 19.733 10.5 19.25C10.5 18.767 10.108 18.375 9.625 18.375Z" fill="white"/>
</svg>
