<svg width="24" height="20" viewBox="0 0 24 20" fill="none" xmlns="http://www.w3.org/2000/svg">
<path d="M0.276923 10.9231C0.0923077 10.7385 0 10.4616 0 10.277C0 10.0924 0.0923077 9.81544 0.276923 9.63083L1.56923 8.33852C1.93846 7.96929 2.49231 7.96929 2.86154 8.33852L2.95385 8.43083L8.03077 13.877C8.21538 14.0616 8.49231 14.0616 8.67692 13.877L21.0462 1.04621H21.1385C21.5077 0.676979 22.0615 0.676979 22.4308 1.04621L23.7231 2.33852C24.0923 2.70775 24.0923 3.26159 23.7231 3.63083L8.95385 18.9539C8.76923 19.1385 8.58462 19.2308 8.30769 19.2308C8.03077 19.2308 7.84615 19.1385 7.66154 18.9539L0.461538 11.2001L0.276923 10.9231Z" fill="#43AC3C"/>
</svg>
