<svg width="110" height="110" viewBox="0 0 110 110" fill="none" xmlns="http://www.w3.org/2000/svg">
<g clip-path="url(#clip0)">
<path d="M108.051 47.1239C106.911 45.4018 105.182 44.2151 103.172 43.7653C104.469 41.2853 104.416 38.1911 102.764 35.6977C101.589 33.9227 99.8168 32.7763 97.8874 32.3424C98.2315 31.6862 98.4858 30.9778 98.6377 30.2309C99.059 28.1538 98.6478 26.0373 97.4771 24.2707C96.3365 22.5477 94.6077 21.3611 92.5977 20.9121C93.8944 18.4321 93.8415 15.3379 92.1899 12.8437C89.7754 9.19721 84.8424 8.19432 81.1951 10.6096L73.2979 15.8397C69.0883 13.7047 64.611 12.1899 59.9641 11.3272C58.4955 9.09734 56.7876 7.02443 54.8758 5.1714L51.6087 2.00497C49.216 -0.31467 45.4638 -0.662952 42.686 1.17749C39.3995 3.35362 38.4965 7.79821 40.6726 11.0846C40.7582 11.2147 40.8422 11.3456 40.9253 11.4766C30.2158 13.6435 20.4555 19.3268 13.2314 27.6545C5.39208 36.6922 1.07422 48.2669 1.07422 60.2461C1.07422 62.5423 1.23116 64.8426 1.54167 67.0817C3.93433 84.4883 15.5292 99.4887 31.8003 106.23C37.8344 108.731 44.2369 110 50.8274 110C61.2649 110 71.256 106.803 79.7214 100.757C88.0029 94.8402 94.199 86.6753 97.6407 77.145C97.9621 76.257 97.5014 75.276 96.6135 74.9554C95.7247 74.6348 94.7445 75.0947 94.4239 75.9835C91.2189 84.8584 85.4475 92.4618 77.7324 97.9731C69.8511 103.603 60.5474 106.579 50.8274 106.579C45.802 106.579 40.895 105.786 36.1987 104.222L50.1149 95.0064C50.1157 95.0055 50.1165 95.0055 50.1174 95.0047C50.1182 95.0047 50.1182 95.0039 50.1191 95.003L61.6846 87.3442H61.6854C62.7235 86.656 63.4327 85.6053 63.6811 84.3842C63.9295 83.1631 63.6878 81.9177 62.9996 80.8795L62.8469 80.6479L65.0935 79.16C66.6965 78.0983 68.6242 77.6821 70.5225 77.9867C73.271 78.4281 76.0623 77.8239 78.382 76.2873L97.0163 63.9472C96.8887 65.5635 96.6789 67.1707 96.386 68.7509C96.2132 69.68 96.8266 70.5729 97.7557 70.745C97.8606 70.7651 97.9663 70.7743 98.0695 70.7743C98.8777 70.7743 99.5961 70.1986 99.7489 69.3753C100.223 66.8249 100.496 64.2124 100.566 61.5965L105.817 58.1187C107.584 56.9488 108.79 55.1604 109.211 53.0841C109.633 51.007 109.221 48.8905 108.051 47.1239ZM69.977 18.0385L64.7511 21.4995L63.7222 18.7276C63.2925 17.5711 62.7999 16.4373 62.2544 15.3278C64.9055 16 67.487 16.9064 69.977 18.0385ZM15.8154 29.8961C22.7584 21.8923 32.2157 16.512 42.5618 14.6464C44.2218 18.668 44.6196 23.1612 43.6276 27.4438L39.4574 45.4597C38.802 44.7598 37.951 44.2772 36.9926 44.0825C35.7707 43.8332 34.5261 44.0758 33.488 44.7639L21.6757 52.5856C21.6749 52.5856 21.6749 52.5856 21.6741 52.5864C21.6741 52.5864 21.6732 52.5864 21.6732 52.5873L4.63677 63.8691C4.54361 62.6673 4.49494 61.4563 4.49494 60.2461C4.49494 49.091 8.51571 38.3119 15.8154 29.8961ZM60.3292 83.7019C60.2629 84.0275 60.0732 84.3087 59.7954 84.4924H59.7963L49.6382 91.2189L30.7848 63.1021C30.2586 62.3174 29.1961 62.1084 28.4114 62.6346C27.6276 63.1608 27.4178 64.2224 27.944 65.0071L46.7856 93.108L32.2845 102.711C17.8748 96.4087 7.56318 83.0985 5.08408 67.6104L22.1407 56.3521L24.1036 59.281C24.4343 59.7728 24.9748 60.0388 25.5261 60.0388C25.8534 60.0388 26.1849 59.9457 26.477 59.7493C27.2617 59.2231 27.4715 58.1606 26.9453 57.376L24.9958 54.468L35.3771 47.6157C35.6532 47.4319 35.9847 47.3681 36.3103 47.4344C36.6359 47.5007 36.9171 47.6904 37.1009 47.9673L60.1479 82.7687C60.3309 83.0448 60.3955 83.3763 60.3292 83.7019ZM105.859 52.4027C105.619 53.5843 104.934 54.6014 103.928 55.267L97.9252 59.2424C97.9235 59.2433 97.9218 59.2449 97.9193 59.2458L76.4928 73.4355C74.8899 74.4972 72.9622 74.9143 71.0638 74.6088C68.3162 74.1682 65.5249 74.7716 63.2044 76.3082L60.9578 77.7962L42.0817 49.2933L46.961 28.2159C48.2174 22.7861 47.5552 17.0667 45.1617 12.0842C45.1399 12.0321 45.1164 11.9818 45.0895 11.9323C44.6296 10.9907 44.1076 10.0767 43.5244 9.19553C42.3897 7.48181 42.8605 5.16469 44.5751 4.02921C46.0236 3.06996 47.9807 3.25124 49.2278 4.46057L52.4949 7.62784C56.029 11.0544 58.8026 15.3043 60.5147 19.9184L62.2938 24.7113C62.2972 24.7205 62.3006 24.7281 62.3039 24.7365C62.3081 24.7474 62.3131 24.7591 62.3173 24.77C62.3299 24.7994 62.3417 24.8263 62.3543 24.8489C62.3887 24.9211 62.4264 24.9924 62.4718 25.0604C62.9938 25.8485 64.0546 26.0641 64.8418 25.5421L83.0842 13.4622C85.1588 12.0884 87.9643 12.6582 89.3382 14.7328C90.712 16.8074 90.1421 19.6129 88.0676 20.9868L86.4839 22.0358C86.4839 22.0358 86.4831 22.0358 86.4822 22.0367L82.9499 24.3764C82.9449 24.3798 82.9415 24.3832 82.9365 24.3857C82.9163 24.3999 82.897 24.4134 82.8811 24.4268C82.151 24.9631 81.9621 25.9827 82.4682 26.7464C82.9893 27.5345 84.051 27.7502 84.839 27.2282L88.3739 24.8867C89.3784 24.2229 90.5811 23.9887 91.7619 24.2287C92.9427 24.4688 93.9607 25.1544 94.6253 26.1598C95.2908 27.1644 95.5258 28.3687 95.2858 29.5495C95.0458 30.7311 94.3601 31.7483 93.3547 32.4138L88.2371 35.8034C87.449 36.3246 87.2334 37.3854 87.7554 38.1734C88.0843 38.6703 88.6282 38.9397 89.1829 38.9397C89.5068 38.9397 89.835 38.8473 90.1254 38.6552L90.9176 38.1306L93.6585 36.3154C95.734 34.9416 98.5387 35.5114 99.9125 37.586C101.286 39.6614 100.716 42.4661 98.6419 43.8408L96.0856 45.5335C96.0722 45.5419 96.0587 45.5511 96.0453 45.5604L93.5243 47.2296C92.7362 47.7508 92.5205 48.8124 93.0425 49.6005C93.3715 50.0973 93.9153 50.3667 94.4701 50.3667C94.794 50.3667 95.1222 50.2744 95.4125 50.0822L96.2048 49.5577C96.2048 49.5577 96.2048 49.5568 96.2056 49.5568L98.9465 47.7424C99.9511 47.0769 101.155 46.8419 102.336 47.0828C103.518 47.3219 104.535 48.0084 105.201 49.013C105.865 50.0176 106.099 51.2219 105.859 52.4027Z" fill="#FFC000"/>
</g>
<defs>
<clipPath id="clip0">
<rect width="110" height="110" fill="white"/>
</clipPath>
</defs>
</svg>
