<svg width="28" height="28" viewBox="0 0 28 28" fill="none" xmlns="http://www.w3.org/2000/svg">
<path d="M15.9933 2C9.36 2 4 7.37331 4 14H0L5.19331 19.1933L5.28662 19.3866L10.6667 14H6.66669C6.66669 8.84669 10.8467 4.66669 16 4.66669C21.1533 4.66669 25.3333 8.84669 25.3333 14C25.3333 19.1533 21.1533 23.3333 16 23.3333C13.42 23.3333 11.0933 22.28 9.40669 20.5933L7.52 22.48C9.68669 24.6533 12.68 26 15.9933 26C22.6267 26 28 20.6267 28 14C28 7.37331 22.6267 2 15.9933 2Z" fill="white"/>
<path d="M14.6667 8.66675V15.3334L20.3734 18.7201L21.3334 17.1001L16.6667 14.3334V8.66675H14.6667Z" fill="white"/>
</svg>
