<svg width="110" height="110" viewBox="0 0 110 110" fill="none" xmlns="http://www.w3.org/2000/svg">
<path d="M87.6169 0H22.3839C17.7905 0 13.4171 1.44096 9.73601 4.16668C9.01822 4.6982 8.86719 5.71098 9.39871 6.42877C9.93023 7.14656 10.943 7.29717 11.6608 6.76607C14.7808 4.45564 18.4887 3.23426 22.3839 3.23426H87.6167C97.5631 3.23426 105.655 11.3263 105.655 21.2725V64.0574C105.655 74.0038 97.5628 82.0957 87.6167 82.0957H60.0449C59.3787 82.0957 58.735 82.3741 58.2795 82.859L36.136 106.404C35.658 106.912 35.1037 106.767 34.8878 106.682C34.6716 106.597 34.1691 106.322 34.1691 105.624V84.5195C34.1691 83.1832 33.082 82.0961 31.7457 82.0961H22.3839C12.4375 82.0961 4.34537 74.004 4.34537 64.0578V21.2725C4.34537 17.6133 5.43441 14.0905 7.49498 11.0853C7.99986 10.3486 7.8123 9.34227 7.07582 8.83717C6.33955 8.33207 5.33258 8.52006 4.8277 9.25633C2.39652 12.8025 1.11133 16.9576 1.11133 21.2725V64.0574C1.11133 75.787 10.6543 85.3299 22.3841 85.3299H30.9351V105.624C30.9351 107.429 32.0187 109.024 33.696 109.689C34.2248 109.898 34.7739 110 35.3166 110C36.4959 110 37.6455 109.519 38.492 108.62L60.3953 85.3301H87.6169C99.3465 85.3301 108.889 75.7872 108.889 64.0576V21.2725C108.889 9.54293 99.3467 0 87.6169 0Z" fill="#FFC000"/>
<path d="M78.2292 25.9821C72.6167 20.3693 63.4835 20.3698 57.8704 25.9821L55.0519 28.8009C55.0444 28.8084 55.0212 28.8316 54.978 28.8316C54.935 28.8316 54.912 28.8088 54.9045 28.8009L52.1307 26.0273C46.5179 20.4145 37.3849 20.4147 31.7721 26.0273C26.1593 31.64 26.1593 40.7733 31.7721 46.3861L52.6195 67.2334C53.25 67.864 54.0883 68.2112 54.9799 68.2112C55.8715 68.2112 56.7101 67.8638 57.3404 67.2332L68.797 55.7747C69.4286 55.1431 69.4286 54.1191 68.7968 53.4879C68.1651 52.8565 67.141 52.8563 66.51 53.4881L55.0534 64.9466C55.0459 64.9541 55.0227 64.9769 54.9799 64.9769C54.9368 64.9769 54.9138 64.9541 54.9062 64.9462L34.0589 44.0988C29.707 39.7467 29.707 32.6659 34.0589 28.3138C38.4108 23.9617 45.4918 23.9622 49.8437 28.3138L52.6173 31.0875C53.2479 31.718 54.0862 32.0654 54.9778 32.0654C55.8696 32.0654 56.7077 31.7183 57.3385 31.0877L60.1572 28.2689C64.51 23.9173 71.5904 23.9173 75.9422 28.2689C80.2941 32.6208 80.2941 39.7016 75.9422 44.0539L71.1143 48.883C70.4826 49.5146 70.4826 50.5386 71.1145 51.1698C71.7461 51.8012 72.7701 51.8014 73.4013 51.1696L78.2295 46.3407C83.842 40.7279 83.842 31.5949 78.2292 25.9821Z" fill="#FFC000"/>
</svg>
