<svg width="110" height="109" viewBox="0 0 110 109" fill="none" xmlns="http://www.w3.org/2000/svg">
<path d="M90.772 57.611C89.8879 57.611 89.1712 58.3212 89.1712 59.1972C89.1712 60.3079 88.2594 61.2114 87.1385 61.2114C86.0179 61.2114 85.1059 60.3079 85.1059 59.1972C85.1059 58.3209 84.3892 57.611 83.5051 57.611C82.621 57.611 81.9043 58.3212 81.9043 59.1972C81.9043 62.0572 84.2525 64.3839 87.1385 64.3839C90.0245 64.3839 92.3728 62.057 92.3728 59.1972C92.3728 58.3207 91.656 57.611 90.772 57.611Z" fill="#FFC000"/>
<path d="M105.799 57.87L101.293 56.4398C100.716 56.2565 100.261 55.8001 100.076 55.2187C99.1268 52.2269 97.6937 49.4182 95.8171 46.8704C94.9618 45.709 94.0107 44.6001 92.9717 43.5444C93.6364 40.6548 93.9978 37.3846 93.951 34.5593C93.8839 30.5176 93.0688 28.1471 91.4592 27.3117C90.5923 26.8612 87.954 25.4927 73.674 31.9701C73.3358 32.1234 73.02 32.3123 72.7276 32.5286C71.7649 32.2722 70.7809 32.0351 69.7909 31.8222C69.6717 31.7964 69.5488 31.7736 69.4287 31.7485C70.5858 29.2437 71.2615 26.5231 71.3885 23.7147C71.428 22.8393 70.7442 22.098 69.8607 22.059C68.9797 22.0156 68.2292 22.6973 68.1899 23.5727C67.9813 28.1905 66.0481 32.5354 62.7468 35.8069C60.7744 37.7614 58.4648 39.1812 56.0033 40.0753C51.7346 39.4818 47.3866 39.4818 43.1179 40.0753C40.6562 39.1812 38.3468 37.7614 36.3743 35.8069C32.8522 32.3167 30.9124 27.6764 30.9124 22.7405C30.9124 17.8044 32.8522 13.1642 36.3743 9.67411C39.8965 6.18377 44.5797 4.26158 49.5606 4.26158C54.5415 4.26158 59.2247 6.18377 62.7468 9.67411C64.1622 11.0766 65.3318 12.6771 66.2232 14.4307C66.6209 15.2133 67.5836 15.5284 68.3732 15.1341C69.1629 14.7403 69.4807 13.7863 69.083 13.0039C68.0382 10.9476 66.6682 9.07269 65.0111 7.43045C60.8841 3.34104 55.397 1.08887 49.5608 1.08887C43.7246 1.08887 38.2375 3.34104 34.1105 7.43045C29.9836 11.5201 27.7108 16.9571 27.7108 22.7403C27.7108 28.5234 29.9836 33.9607 34.1105 38.0501C35.301 39.2297 36.5961 40.2441 37.9659 41.094C37.9663 41.094 37.9668 41.0938 37.9672 41.0938C36.9718 41.3501 35.984 41.6379 35.0071 41.9615C34.1685 42.2394 33.7161 43.138 33.9964 43.9691C34.2766 44.8 35.1839 45.2483 36.0222 44.9707C44.7526 42.0786 54.369 42.0786 63.0994 44.9707C63.2678 45.0265 63.4389 45.0529 63.6071 45.0529C64.2767 45.0529 64.9011 44.6331 65.1252 43.9691C65.4055 43.1382 64.9531 42.2394 64.1145 41.9615C63.1376 41.6379 62.1498 41.3499 61.1544 41.0938C61.1548 41.0938 61.1553 41.094 61.1557 41.094C62.5258 40.2441 63.8206 39.2297 65.0111 38.0501C66.0642 37.0065 66.9939 35.8669 67.801 34.6558C68.2423 34.7407 68.6804 34.8297 69.112 34.9225C69.6869 35.0462 70.2593 35.179 70.8265 35.3185C70.8086 35.3875 70.7904 35.4562 70.7756 35.5263C69.9948 39.1976 70.0455 42.4446 70.9262 45.1766C71.7176 47.6323 73.1461 49.6218 75.1715 51.0901C77.5586 52.8204 80.4405 53.5679 83.0511 53.5679C85.0158 53.5679 86.8272 53.1442 88.1575 52.3976C89.6622 51.5531 90.923 49.7736 91.9209 47.1018C92.3822 47.6353 92.8194 48.1818 93.2314 48.7412C94.9023 51.0094 96.1778 53.5091 97.0226 56.1707C97.5187 57.734 98.7501 58.964 100.317 59.4616L104.822 60.8918C106.005 61.2671 106.799 62.3454 106.799 63.5755V70.9787C106.799 72.2088 106.005 73.2871 104.822 73.6624L97.5629 75.9666C96.4015 76.3355 95.4186 77.1264 94.7953 78.1938C91.9432 83.078 87.4592 87.1197 81.467 90.2068C80.7748 90.5638 80.2953 91.2023 80.1509 91.9589L77.8259 104.158C77.7616 104.494 77.4645 104.738 77.1192 104.738H69.5595C69.2143 104.738 68.9172 104.494 68.8529 104.158L67.5651 97.4161C67.3116 96.0896 66.0561 95.2085 64.7047 95.4113C61.4483 95.8993 58.0929 96.1465 54.7321 96.1465C52.2317 96.1465 49.7634 96.0083 47.3952 95.7356C46.0857 95.5863 44.8658 96.4709 44.6211 97.7521L43.3974 104.158C43.3331 104.494 43.036 104.738 42.6907 104.738H35.131C34.7858 104.738 34.4887 104.494 34.4236 104.153L32.1849 92.631C32.0407 91.8886 31.5702 91.2574 30.8932 90.8991C20.6787 85.4958 15.2797 76.4683 15.2797 64.7934C15.2797 58.8946 16.5821 53.6786 19.1505 49.2897C21.5473 45.1938 25.048 41.8074 29.5552 39.224C30.3205 38.7852 30.5819 37.8148 30.1394 37.0563C29.6968 36.298 28.7175 36.0393 27.952 36.4775C19.2124 41.4872 13.9412 49.216 12.4899 59.0324V59.0322C12.3359 59.0183 12.1816 59.0051 12.028 58.9894C12.056 57.9303 11.8626 56.8615 11.4415 55.8243C10.5127 53.5366 8.60492 51.8854 6.58088 51.6178C4.98588 51.4062 3.46801 52.0772 2.41463 53.4563C0.887305 55.4562 1.13631 57.0389 1.61391 58.0143C2.42021 59.6606 4.49281 60.8251 7.93225 61.5573C7.83772 61.6976 7.73373 61.8385 7.61986 61.9801C5.58766 64.5056 3.19344 65.064 1.63883 65.1166C0.72875 65.147 0 65.8711 0 66.7735V66.7812C0 67.6713 0.70877 68.3972 1.60617 68.4379C1.72111 68.4432 1.84121 68.446 1.96625 68.446C3.93336 68.446 7.09049 67.7271 10.1237 63.9582C10.6025 63.3634 10.9927 62.7358 11.2926 62.0874C11.5947 62.1212 11.8849 62.1502 12.1629 62.1757C12.1629 62.1751 12.1629 62.1746 12.1632 62.174C12.1086 63.0337 12.0783 63.9059 12.0783 64.7934C12.0783 71.399 13.6675 77.2886 16.8014 82.2994C19.6911 86.9191 23.8283 90.7018 29.1023 93.5464L31.2787 104.748C31.6287 106.58 33.2488 107.911 35.131 107.911H42.6907C44.573 107.911 46.1931 106.58 46.5431 104.748L47.6496 98.9556C49.9475 99.1968 52.3267 99.319 54.7319 99.319C58.0319 99.319 61.328 99.0912 64.5404 98.6415L65.7067 104.748C66.0569 106.581 67.6771 107.911 69.5591 107.911H77.1188C79.0011 107.911 80.6212 106.581 80.9714 104.747L83.2352 92.8701C89.6307 89.519 94.4513 85.1168 97.5661 79.7826C97.7906 79.3981 98.1363 79.1161 98.5394 78.9881L105.799 76.684C108.312 75.8859 110 73.5933 110 70.9783V63.575C110 60.9603 108.312 58.6677 105.799 57.87ZM90.5089 39.017C89.8928 44.2384 88.24 48.7048 86.5792 49.6369C84.6916 50.6964 80.3335 50.901 77.0614 48.5292C73.7855 46.1546 72.6952 41.8845 73.908 36.1803C73.908 36.1801 73.908 36.1801 73.908 36.1801C74.0298 35.6072 74.4406 35.1116 75.0067 34.8548C83.0212 31.2195 87.6419 30.0305 89.3585 30.0305C89.6176 30.0305 89.8105 30.0575 89.939 30.1074C90.4546 30.6519 91.1309 33.7476 90.5089 39.017ZM4.49475 56.6291C4.3291 56.2906 4.72012 55.6955 4.96805 55.3707C5.361 54.8563 5.72301 54.7511 5.9965 54.7511C6.0543 54.7511 6.10822 54.7558 6.15764 54.7624C6.89369 54.8597 7.92494 55.6623 8.47129 57.008C8.59998 57.3248 8.76713 57.8496 8.80623 58.504C6.59012 58.049 4.86836 57.3931 4.49475 56.6291Z" fill="#FFC000"/>
<path d="M51.1153 20.9223V15.2458C53.0908 15.3857 53.8247 16.2804 54.5019 16.2804C55.3486 16.2804 55.7437 15.2179 55.7437 14.6865C55.7437 13.3162 53.0343 12.729 51.1153 12.673V11.9177C51.1153 11.5822 50.6918 11.2745 50.2686 11.2745C49.7886 11.2745 49.45 11.5822 49.45 11.9177V12.7286C46.769 13.0083 44.088 14.4066 44.088 17.9301C44.088 21.5097 46.9102 22.5164 49.45 23.4112V29.9829C46.5713 29.7592 45.8095 27.8017 44.8782 27.8017C44.1726 27.8017 43.5801 28.7245 43.5801 29.3958C43.5801 30.7659 45.9507 32.6396 49.45 32.6956V33.5625C49.45 33.898 49.7888 34.2056 50.2686 34.2056C50.692 34.2056 51.1153 33.898 51.1153 33.5625V32.6117C54.1633 32.1921 56.2516 30.2906 56.2516 26.8509C56.2516 23.0478 53.5705 21.8171 51.1153 20.9223ZM49.6193 20.3912C48.1236 19.8319 46.9102 19.2447 46.9102 17.6508C46.9102 16.1966 48.0389 15.4974 49.6193 15.3018V20.3912ZM50.9458 29.9269V24.0265C52.3285 24.6136 53.4292 25.3966 53.4292 27.1583C53.4292 28.7526 52.4697 29.6474 50.9458 29.9269Z" fill="#FFC000"/>
</svg>
