<svg width="110" height="110" viewBox="0 0 110 110" fill="none" xmlns="http://www.w3.org/2000/svg">
<mask id="path-2-inside-1" fill="white">
<path d="M102.5 20.599C101.681 19.8497 100.512 20.0124 99.5 20.599C98.4873 21.1855 97.9239 22.4685 98.5 23.5C107.291 31.9712 105.908 53.6331 96.9326 62.7741L95.3331 64.4032C94.9466 63.3705 94.348 62.4018 93.5323 61.5712L71.8572 39.4949C73.2747 38.7846 74.5844 37.8369 75.7342 36.6658L79.8914 32.4315C80.7151 31.5925 80.7151 30.2319 79.8914 29.3929C79.0675 28.554 77.732 28.554 76.9079 29.3929L72.7507 33.6273C70.7977 35.6163 68.2012 36.7118 65.4394 36.7118H57.1291C56.5697 36.7118 56.0333 36.9383 55.6374 37.3411L49.2755 43.8208C47.3863 45.7451 44.3124 45.7451 42.4232 43.8208C40.5338 41.8966 40.5338 38.7657 42.4232 36.8416L56.9475 22.0485C65.8235 13.0079 84 11.5 94.6319 19.8368C95.6507 20.412 96.9349 20.0379 97.5 19C98.0651 17.9623 98.1653 16.8493 97.3178 15.8493C92.784 10.5 79.5189 8.67277 72.628 9.60755C66.1792 10.4822 60.2765 13.2324 55.438 17.5963C49.494 12.2293 41.9271 9.29431 33.9157 9.29431C25.2364 9.29431 17.0769 12.7368 10.9397 18.9874C4.80249 25.2381 1.42285 33.5493 1.42285 42.3891C1.42285 51.229 4.8027 59.5396 10.9397 65.7905L11.7347 66.6002C11.8731 66.7409 12.0267 66.8561 12.1889 66.9496C12.33 68.8084 13.0947 70.6268 14.4875 72.0452C16.0377 73.6239 18.0728 74.4128 20.1085 74.4128C20.2142 74.4128 20.3201 74.4094 20.4258 74.4051C20.4216 74.5138 20.418 74.6225 20.418 74.7319C20.418 76.8945 21.2449 78.9278 22.7463 80.457C24.2965 82.0357 26.3316 82.8248 28.3674 82.8246C28.4731 82.8246 28.5789 82.8212 28.6846 82.8169C28.6804 82.9256 28.6768 83.0343 28.6768 83.1436C28.6768 85.3063 29.5037 87.3395 31.0054 88.8688C32.5553 90.4473 34.5909 91.2364 36.6264 91.2364C36.7334 91.2364 36.8403 91.2329 36.9473 91.2286C36.8616 93.4095 37.633 95.6194 39.2642 97.281C40.7659 98.8103 42.7622 99.6525 44.8853 99.6525C47.0088 99.6525 49.0051 98.8103 50.5063 97.281L53.4546 94.2779L57.4369 98.3335C58.9383 99.863 60.9347 100.705 63.0579 100.705C65.1812 100.705 67.1776 99.863 68.679 98.3337C70.3298 96.6524 71.101 94.4092 70.9934 92.2027C71.1259 92.2094 71.2588 92.2133 71.3915 92.2133C73.4272 92.2133 75.4632 91.4242 77.0129 89.8455C78.6433 88.185 79.4147 85.9768 79.3299 83.797C79.4366 83.8013 79.5433 83.8049 79.6507 83.8049C81.774 83.8049 83.7703 82.9627 85.2718 81.4335C86.9021 79.773 87.6735 77.5648 87.5887 75.385C87.6954 75.3893 87.8022 75.3929 87.9095 75.3929C90.0328 75.3929 92.0292 74.5507 93.5306 73.0215C94.2931 72.2448 94.8673 71.3476 95.2546 70.3901C95.4598 70.2882 95.6528 70.1527 95.8235 69.9791L99.9144 65.8124C110.229 55.3085 112.623 29.8584 102.5 20.599ZM20.1087 70.1194C19.1123 70.1194 18.1755 69.7243 17.4708 69.0065C16.7662 68.2889 16.3781 67.3348 16.3781 66.3199C16.3781 65.3051 16.766 64.3508 17.4708 63.6332L21.1061 59.9306C21.8106 59.2128 22.7476 58.8177 23.744 58.8177C24.7403 58.8177 25.6773 59.2128 26.3818 59.9306C27.8364 61.4122 27.8364 63.8225 26.3818 65.3039L22.7465 69.0067C22.042 69.7241 21.1054 70.1194 20.1087 70.1194ZM25.7302 77.4187C25.0255 76.7011 24.6376 75.7468 24.6376 74.7321C24.6376 73.7172 25.0255 72.763 25.7302 72.0454L29.3657 68.3426C30.0703 67.625 31.007 67.2295 32.0035 67.2295C32.9998 67.2295 33.9368 67.6246 34.6413 68.3424C36.0959 69.824 36.0959 72.2343 34.6413 73.7157L31.006 77.4185C29.5512 78.8998 27.184 78.8998 25.7302 77.4187ZM33.9891 85.8305C33.2843 85.1129 32.8964 84.1586 32.8964 83.1439C32.8964 82.1289 33.2843 81.1748 33.9891 80.4572L37.6246 76.7544C38.3291 76.0368 39.2659 75.6413 40.2623 75.6413C41.2588 75.6413 42.1956 76.0364 42.9001 76.7542C44.3547 78.236 44.3547 80.6463 42.9001 82.1276L39.2646 85.8305C37.8102 87.312 35.4437 87.312 33.9891 85.8305ZM51.1592 90.5399L47.5237 94.2429C46.8191 94.9605 45.8824 95.3558 44.8859 95.3558C43.8896 95.3558 42.9527 94.9607 42.2481 94.2429C40.7935 92.7611 40.7935 90.3508 42.2481 88.8694L45.8836 85.1666C46.5882 84.449 47.5249 84.0535 48.5214 84.0535C49.5177 84.0535 50.4546 84.4486 51.1592 85.1664C51.8639 85.884 52.2518 86.8383 52.2518 87.853C52.252 88.8684 51.8639 89.8223 51.1592 90.5399ZM90.5488 69.983C89.8443 70.7007 88.9073 71.0958 87.911 71.0958C86.9146 71.0958 85.9778 70.7007 85.2732 69.983L76.4925 61.0396L76.4915 61.0386L68.2333 52.6274C67.4094 51.7885 66.0739 51.7885 65.2498 52.6274C64.4261 53.4664 64.4261 54.827 65.2498 55.666L82.2897 73.0211C83.7444 74.5028 83.7444 76.9132 82.2897 78.3945C81.5852 79.1123 80.6482 79.5074 79.652 79.5074C78.6555 79.5074 77.7187 79.1123 77.0142 78.3945L59.9742 61.0392C59.1503 60.2005 57.8149 60.2005 56.9907 61.0392C56.167 61.8782 56.167 63.2388 56.9907 64.078L65.2481 72.488L65.25 72.4902L74.0309 81.4333C75.4855 82.915 75.4855 85.3256 74.0311 86.8069C72.5763 88.2885 70.2094 88.2885 68.7554 86.8069L59.9745 77.8634C59.812 77.6982 59.6296 77.5667 59.4353 77.4666L56.9308 74.9158C56.1069 74.077 54.7715 74.077 53.9473 74.9158C53.1236 75.7547 53.1236 77.1153 53.9473 77.9545L65.697 89.9213C67.1516 91.4031 67.1516 93.8134 65.697 95.2948C64.9925 96.0126 64.0555 96.4077 63.0592 96.4077C62.0627 96.4077 61.126 96.0126 60.4214 95.2948L55.9504 90.7412C56.2911 89.8309 56.4712 88.8561 56.4712 87.8528C56.4712 85.6902 55.6443 83.6569 54.1429 82.1276C52.6412 80.5984 50.6449 79.7562 48.5218 79.7562C48.4145 79.7562 48.3077 79.7599 48.201 79.7642C48.2856 77.5844 47.5144 75.3762 45.884 73.7157C44.3824 72.1864 42.3861 71.3442 40.263 71.3442C40.1556 71.3442 40.0489 71.3479 39.9421 71.3521C40.0269 69.1723 39.2556 66.9642 37.6252 65.3036C36.1236 63.7744 34.1272 62.9322 32.0041 62.9322C31.8968 62.9322 31.79 62.9359 31.6833 62.9402C31.7681 60.7603 30.9967 58.5522 29.3664 56.8917C26.2669 53.7347 21.2231 53.735 18.1236 56.8917L14.4883 60.5943C14.0297 61.0613 13.641 61.5725 13.3178 62.1134C8.36269 56.7529 5.64287 49.784 5.64287 42.3886C5.64287 34.6966 8.58376 27.4647 13.9243 22.0257C19.2644 16.5868 26.3649 13.5912 33.9169 13.5912C40.78 13.5912 47.2697 16.0653 52.4043 20.599L39.4408 33.8026C37.7288 35.5465 36.7859 37.8649 36.7859 40.3309C36.7859 42.797 37.7288 45.1154 39.4408 46.8593C41.208 48.6591 43.5294 49.559 45.8505 49.559C48.1717 49.559 50.493 48.6593 52.2603 46.8593L58.0045 41.0087H65.4407C66.0547 41.0087 66.662 40.9659 67.2619 40.8901L90.5501 64.6091C92.0032 66.0913 92.0032 68.5018 90.5488 69.983Z"/>
</mask>
<path d="M102.5 20.599C101.681 19.8497 100.512 20.0124 99.5 20.599C98.4873 21.1855 97.9239 22.4685 98.5 23.5C107.291 31.9712 105.908 53.6331 96.9326 62.7741L95.3331 64.4032C94.9466 63.3705 94.348 62.4018 93.5323 61.5712L71.8572 39.4949C73.2747 38.7846 74.5844 37.8369 75.7342 36.6658L79.8914 32.4315C80.7151 31.5925 80.7151 30.2319 79.8914 29.3929C79.0675 28.554 77.732 28.554 76.9079 29.3929L72.7507 33.6273C70.7977 35.6163 68.2012 36.7118 65.4394 36.7118H57.1291C56.5697 36.7118 56.0333 36.9383 55.6374 37.3411L49.2755 43.8208C47.3863 45.7451 44.3124 45.7451 42.4232 43.8208C40.5338 41.8966 40.5338 38.7657 42.4232 36.8416L56.9475 22.0485C65.8235 13.0079 84 11.5 94.6319 19.8368C95.6507 20.412 96.9349 20.0379 97.5 19C98.0651 17.9623 98.1653 16.8493 97.3178 15.8493C92.784 10.5 79.5189 8.67277 72.628 9.60755C66.1792 10.4822 60.2765 13.2324 55.438 17.5963C49.494 12.2293 41.9271 9.29431 33.9157 9.29431C25.2364 9.29431 17.0769 12.7368 10.9397 18.9874C4.80249 25.2381 1.42285 33.5493 1.42285 42.3891C1.42285 51.229 4.8027 59.5396 10.9397 65.7905L11.7347 66.6002C11.8731 66.7409 12.0267 66.8561 12.1889 66.9496C12.33 68.8084 13.0947 70.6268 14.4875 72.0452C16.0377 73.6239 18.0728 74.4128 20.1085 74.4128C20.2142 74.4128 20.3201 74.4094 20.4258 74.4051C20.4216 74.5138 20.418 74.6225 20.418 74.7319C20.418 76.8945 21.2449 78.9278 22.7463 80.457C24.2965 82.0357 26.3316 82.8248 28.3674 82.8246C28.4731 82.8246 28.5789 82.8212 28.6846 82.8169C28.6804 82.9256 28.6768 83.0343 28.6768 83.1436C28.6768 85.3063 29.5037 87.3395 31.0054 88.8688C32.5553 90.4473 34.5909 91.2364 36.6264 91.2364C36.7334 91.2364 36.8403 91.2329 36.9473 91.2286C36.8616 93.4095 37.633 95.6194 39.2642 97.281C40.7659 98.8103 42.7622 99.6525 44.8853 99.6525C47.0088 99.6525 49.0051 98.8103 50.5063 97.281L53.4546 94.2779L57.4369 98.3335C58.9383 99.863 60.9347 100.705 63.0579 100.705C65.1812 100.705 67.1776 99.863 68.679 98.3337C70.3298 96.6524 71.101 94.4092 70.9934 92.2027C71.1259 92.2094 71.2588 92.2133 71.3915 92.2133C73.4272 92.2133 75.4632 91.4242 77.0129 89.8455C78.6433 88.185 79.4147 85.9768 79.3299 83.797C79.4366 83.8013 79.5433 83.8049 79.6507 83.8049C81.774 83.8049 83.7703 82.9627 85.2718 81.4335C86.9021 79.773 87.6735 77.5648 87.5887 75.385C87.6954 75.3893 87.8022 75.3929 87.9095 75.3929C90.0328 75.3929 92.0292 74.5507 93.5306 73.0215C94.2931 72.2448 94.8673 71.3476 95.2546 70.3901C95.4598 70.2882 95.6528 70.1527 95.8235 69.9791L99.9144 65.8124C110.229 55.3085 112.623 29.8584 102.5 20.599ZM20.1087 70.1194C19.1123 70.1194 18.1755 69.7243 17.4708 69.0065C16.7662 68.2889 16.3781 67.3348 16.3781 66.3199C16.3781 65.3051 16.766 64.3508 17.4708 63.6332L21.1061 59.9306C21.8106 59.2128 22.7476 58.8177 23.744 58.8177C24.7403 58.8177 25.6773 59.2128 26.3818 59.9306C27.8364 61.4122 27.8364 63.8225 26.3818 65.3039L22.7465 69.0067C22.042 69.7241 21.1054 70.1194 20.1087 70.1194ZM25.7302 77.4187C25.0255 76.7011 24.6376 75.7468 24.6376 74.7321C24.6376 73.7172 25.0255 72.763 25.7302 72.0454L29.3657 68.3426C30.0703 67.625 31.007 67.2295 32.0035 67.2295C32.9998 67.2295 33.9368 67.6246 34.6413 68.3424C36.0959 69.824 36.0959 72.2343 34.6413 73.7157L31.006 77.4185C29.5512 78.8998 27.184 78.8998 25.7302 77.4187ZM33.9891 85.8305C33.2843 85.1129 32.8964 84.1586 32.8964 83.1439C32.8964 82.1289 33.2843 81.1748 33.9891 80.4572L37.6246 76.7544C38.3291 76.0368 39.2659 75.6413 40.2623 75.6413C41.2588 75.6413 42.1956 76.0364 42.9001 76.7542C44.3547 78.236 44.3547 80.6463 42.9001 82.1276L39.2646 85.8305C37.8102 87.312 35.4437 87.312 33.9891 85.8305ZM51.1592 90.5399L47.5237 94.2429C46.8191 94.9605 45.8824 95.3558 44.8859 95.3558C43.8896 95.3558 42.9527 94.9607 42.2481 94.2429C40.7935 92.7611 40.7935 90.3508 42.2481 88.8694L45.8836 85.1666C46.5882 84.449 47.5249 84.0535 48.5214 84.0535C49.5177 84.0535 50.4546 84.4486 51.1592 85.1664C51.8639 85.884 52.2518 86.8383 52.2518 87.853C52.252 88.8684 51.8639 89.8223 51.1592 90.5399ZM90.5488 69.983C89.8443 70.7007 88.9073 71.0958 87.911 71.0958C86.9146 71.0958 85.9778 70.7007 85.2732 69.983L76.4925 61.0396L76.4915 61.0386L68.2333 52.6274C67.4094 51.7885 66.0739 51.7885 65.2498 52.6274C64.4261 53.4664 64.4261 54.827 65.2498 55.666L82.2897 73.0211C83.7444 74.5028 83.7444 76.9132 82.2897 78.3945C81.5852 79.1123 80.6482 79.5074 79.652 79.5074C78.6555 79.5074 77.7187 79.1123 77.0142 78.3945L59.9742 61.0392C59.1503 60.2005 57.8149 60.2005 56.9907 61.0392C56.167 61.8782 56.167 63.2388 56.9907 64.078L65.2481 72.488L65.25 72.4902L74.0309 81.4333C75.4855 82.915 75.4855 85.3256 74.0311 86.8069C72.5763 88.2885 70.2094 88.2885 68.7554 86.8069L59.9745 77.8634C59.812 77.6982 59.6296 77.5667 59.4353 77.4666L56.9308 74.9158C56.1069 74.077 54.7715 74.077 53.9473 74.9158C53.1236 75.7547 53.1236 77.1153 53.9473 77.9545L65.697 89.9213C67.1516 91.4031 67.1516 93.8134 65.697 95.2948C64.9925 96.0126 64.0555 96.4077 63.0592 96.4077C62.0627 96.4077 61.126 96.0126 60.4214 95.2948L55.9504 90.7412C56.2911 89.8309 56.4712 88.8561 56.4712 87.8528C56.4712 85.6902 55.6443 83.6569 54.1429 82.1276C52.6412 80.5984 50.6449 79.7562 48.5218 79.7562C48.4145 79.7562 48.3077 79.7599 48.201 79.7642C48.2856 77.5844 47.5144 75.3762 45.884 73.7157C44.3824 72.1864 42.3861 71.3442 40.263 71.3442C40.1556 71.3442 40.0489 71.3479 39.9421 71.3521C40.0269 69.1723 39.2556 66.9642 37.6252 65.3036C36.1236 63.7744 34.1272 62.9322 32.0041 62.9322C31.8968 62.9322 31.79 62.9359 31.6833 62.9402C31.7681 60.7603 30.9967 58.5522 29.3664 56.8917C26.2669 53.7347 21.2231 53.735 18.1236 56.8917L14.4883 60.5943C14.0297 61.0613 13.641 61.5725 13.3178 62.1134C8.36269 56.7529 5.64287 49.784 5.64287 42.3886C5.64287 34.6966 8.58376 27.4647 13.9243 22.0257C19.2644 16.5868 26.3649 13.5912 33.9169 13.5912C40.78 13.5912 47.2697 16.0653 52.4043 20.599L39.4408 33.8026C37.7288 35.5465 36.7859 37.8649 36.7859 40.3309C36.7859 42.797 37.7288 45.1154 39.4408 46.8593C41.208 48.6591 43.5294 49.559 45.8505 49.559C48.1717 49.559 50.493 48.6593 52.2603 46.8593L58.0045 41.0087H65.4407C66.0547 41.0087 66.662 40.9659 67.2619 40.8901L90.5501 64.6091C92.0032 66.0913 92.0032 68.5018 90.5488 69.983Z" fill="#FFC000" stroke="white" mask="url(#path-2-inside-1)"/>
</svg>
