<svg width="21" height="21" viewBox="0 0 21 21" fill="none" xmlns="http://www.w3.org/2000/svg">
<path d="M6.88335 8.80469C7.36635 8.80469 7.75835 8.41269 7.75835 7.92969V4.51719C7.75835 2.99162 8.99954 1.75 10.5255 1.75C12.0511 1.75 13.2927 2.99162 13.2927 4.51719V7.92969C13.2927 8.41269 13.6847 8.80469 14.1677 8.80469C14.6507 8.80469 15.0427 8.41269 15.0427 7.92969V4.51719C15.0427 2.0265 13.0162 0 10.5255 0C8.03529 0 6.00879 2.0265 6.00879 4.51719V7.92969C6.00835 8.41269 6.40035 8.80469 6.88335 8.80469Z" fill="white"/>
<path d="M20.5624 6.83856H15.9175V7.92969C15.9175 8.89481 15.1326 9.67969 14.1675 9.67969C13.2028 9.67969 12.4175 8.89481 12.4175 7.92969V6.83856H8.63355V7.92969C8.63355 8.89481 7.84868 9.67969 6.88355 9.67969C5.91843 9.67969 5.13355 8.89481 5.13355 7.92969V6.83856H0.437426C0.195926 6.83856 0.0467386 7.02887 0.104051 7.26337L3.16524 19.7312C3.3503 20.4321 4.08749 21 4.81243 21H16.1874C16.9128 21 17.6495 20.4317 17.8355 19.7312L20.8962 7.26337C20.9531 7.02844 20.8044 6.83856 20.5624 6.83856Z" fill="white"/>
</svg>
