<svg width="28" height="24" viewBox="0 0 28 24" fill="none" xmlns="http://www.w3.org/2000/svg">
<path d="M15.9933 0C9.36 0 4 5.37331 4 12H0L5.19331 17.1933L5.28662 17.3866L10.6667 12H6.66669C6.66669 6.84669 10.8467 2.66669 16 2.66669C21.1533 2.66669 25.3333 6.84669 25.3333 12C25.3333 17.1533 21.1533 21.3333 16 21.3333C13.42 21.3333 11.0933 20.28 9.40669 18.5933L7.52 20.48C9.68669 22.6533 12.68 24 15.9933 24C22.6267 24 28 18.6267 28 12C28 5.37331 22.6267 0 15.9933 0Z" fill="white"/>
<path d="M14.6665 6.66675V13.3334L20.3731 16.7201L21.3331 15.1001L16.6665 12.3334V6.66675H14.6665Z" fill="white"/>
</svg>
