<svg width="28" height="28" viewBox="0 0 28 28" fill="none" xmlns="http://www.w3.org/2000/svg">
<path d="M26.25 7.85775H20.713C21.1103 7.5865 21.4515 7.317 21.6895 7.0755C23.1 5.65625 23.1 3.34625 21.6895 1.927C20.3193 0.547996 17.9288 0.546246 16.5568 1.927C15.799 2.68825 13.7847 5.7875 14.063 7.85775H13.937C14.2135 5.7875 12.201 2.68825 11.4432 1.927C10.0712 0.546246 7.68075 0.547996 6.3105 1.927C4.9 3.34625 4.9 5.65625 6.30875 7.0755C6.5485 7.317 6.88975 7.5865 7.287 7.85775H1.75C0.78575 7.85775 0 8.6435 0 9.60775V13.9827C0 14.4657 0.392 14.8577 0.875 14.8577H1.75V25.3577C1.75 26.322 2.53575 27.1077 3.5 27.1077H24.5C25.4643 27.1077 26.25 26.322 26.25 25.3577V14.8577H27.125C27.608 14.8577 28 14.4657 28 13.9827V9.60775C28 8.6435 27.2143 7.85775 26.25 7.85775ZM7.55125 3.16075C7.9065 2.80375 8.37725 2.60775 8.87775 2.60775C9.3765 2.60775 9.84725 2.80375 10.2025 3.16075C11.382 4.34725 12.5545 7.37825 12.1467 7.8C12.1467 7.8 12.0732 7.85775 11.823 7.85775C10.6138 7.85775 8.3055 6.60125 7.55125 5.84175C6.818 5.10325 6.818 3.89925 7.55125 3.16075ZM13.125 25.3577H3.5V14.8577H13.125V25.3577ZM13.125 13.1077H1.75V9.60775H11.823H13.125V13.1077ZM17.7975 3.16075C18.508 2.4485 19.74 2.45025 20.4488 3.16075C21.182 3.89925 21.182 5.10325 20.4488 5.84175C19.6945 6.60125 17.3863 7.85775 16.177 7.85775C15.9268 7.85775 15.8532 7.80175 15.8515 7.8C15.4455 7.37825 16.618 4.34725 17.7975 3.16075ZM24.5 25.3577H14.875V14.8577H24.5V25.3577ZM26.25 13.1077H14.875V9.60775H16.177H26.25V13.1077Z" fill="white" stroke="white" stroke-width="0.5"/>
</svg>
