<svg width="28" height="20" viewBox="0 0 28 20" fill="none" xmlns="http://www.w3.org/2000/svg">
<path d="M26.25 0.375H1.75C0.78575 0.375 0 1.16075 0 2.125V17.875C0 18.8393 0.78575 19.625 1.75 19.625H26.25C27.2143 19.625 28 18.8393 28 17.875V2.125C28 1.16075 27.2143 0.375 26.25 0.375ZM17.5 2.125H26.25V9.125H22.2757C22.96 8.8485 23.5043 8.5825 23.73 8.35675C24.7537 7.333 24.7537 5.66875 23.73 4.645C22.7063 3.62125 21.042 3.62125 20.0182 4.645C19.6245 5.03875 18.4818 6.39325 17.5 7.571V2.125ZM19.117 8.36375C20.0305 7.27 20.9545 6.18325 21.2555 5.88225C21.427 5.71075 21.651 5.625 21.875 5.625C22.099 5.625 22.323 5.709 22.4945 5.8805C22.8358 6.22175 22.8358 6.7765 22.5155 7.0985C22.2075 7.34 20.7865 7.8475 19.117 8.36375ZM15.75 17.875H1.75V10.875H14.5128L11.6322 13.7555C11.291 14.0968 11.291 14.6515 11.6322 14.9927C11.802 15.1642 12.026 15.25 12.25 15.25C12.474 15.25 12.698 15.1643 12.8695 14.9945L15.75 12.1122V17.875ZM15.75 7.571C14.7683 6.39325 13.6255 5.03875 13.2317 4.64325C12.208 3.6195 10.5437 3.6195 9.52 4.64325C8.49625 5.667 8.49625 7.33125 9.52 8.355C9.74575 8.5825 10.29 8.8485 10.9742 9.125H1.75V2.125H15.75V7.571ZM14.133 8.36375C12.4653 7.8475 11.0495 7.347 10.7555 7.11775C10.4142 6.7765 10.4142 6.22175 10.7555 5.8805C10.927 5.71075 11.151 5.625 11.375 5.625C11.599 5.625 11.823 5.709 11.9945 5.8805C12.2955 6.18325 13.2195 7.27 14.133 8.36375ZM26.25 18.75V17.875H17.5V12.1122L20.3805 14.9927C20.552 15.1642 20.776 15.25 21 15.25C21.224 15.25 21.448 15.1643 21.6195 14.9945C21.9608 14.6532 21.9608 14.0985 21.6195 13.7573L18.7372 10.875H26.25V17.875C26.25 17.875 26.25 17.875 26.2518 17.875L26.25 18.75Z" fill="white"/>
</svg>
